<svg width="730" height="778" viewBox="0 0 730 778" fill="none" xmlns="http://www.w3.org/2000/svg">
<g clip-path="url(#clip0_44_2)">
<path d="M121.033 613.067L122.412 609.695L93.799 514.737L40.5639 556.661L38.4533 554L92.75 511.22L92.4854 510.394L94.0117 510.226L95.5979 508.959L95.9287 509.991L166.012 502.189L306.613 139.084L236.706 31.5361L381.358 87.548L380.14 90.6934L245.271 38.4698L310.398 138.741L169.81 501.814L169.842 501.827L169.006 503.89L192.735 580.898L120.989 613.086L121.033 613.067ZM167.018 508.836L127.369 606.514L188.64 579.023L167.006 508.867L167.018 508.836ZM96.9115 513.302L124.436 604.655L164.592 505.762L96.9115 513.302V513.302Z" fill="#242424"/>
<path d="M191.059 165.935L188.597 168.249L265.237 248.562L267.7 246.248L191.059 165.935Z" fill="#242424"/>
<path d="M165.976 504.923L88.3614 421.338L219.891 359.743L143.575 284.69L145.966 282.288L225.705 360.765L93.9996 422.436L168.47 502.634L165.976 504.923Z" fill="#242424"/>
<path d="M167.305 502.906L165.151 500.263L244.354 437.215L316.385 373.633L297.416 300.747L267.002 242.89L270.012 241.343L300.648 299.757L319.223 371.115L319.56 370.811L319.767 372.447L378.161 369.269L330.831 491.499L316.993 377.63L246.564 439.808L167.305 502.906V502.906ZM320.22 375.805L332.607 477.574L373.128 372.926L320.22 375.805V375.805Z" fill="#242424"/>
<path d="M233.681 53.8755C244.207 57.9511 256.011 52.8057 260.047 42.3827C264.083 31.9598 258.822 20.2064 248.297 16.1307C237.771 12.055 225.967 17.2004 221.931 27.6234C217.895 38.0463 223.155 49.7998 233.681 53.8755Z" fill="#242424"/>
<path d="M182.527 185.982C193.052 190.058 204.857 184.912 208.893 174.489C212.929 164.066 207.668 152.313 197.142 148.237C186.617 144.161 174.812 149.307 170.776 159.73C166.74 170.153 172.001 181.906 182.527 185.982Z" fill="#242424"/>
<path d="M139.898 296.071C146.915 298.788 154.785 295.358 157.476 288.409C160.166 281.461 156.659 273.625 149.642 270.908C142.625 268.191 134.755 271.621 132.065 278.57C129.374 285.518 132.881 293.354 139.898 296.071Z" fill="#242424"/>
<path d="M83.8725 440.759C94.3981 444.835 106.202 439.689 110.238 429.267C114.274 418.844 109.014 407.09 98.4879 403.014C87.9624 398.939 76.1579 404.084 72.122 414.507C68.086 424.93 73.3469 436.684 83.8725 440.759Z" fill="#242424"/>
<path d="M371.006 114.284C385.04 119.718 400.779 112.858 406.16 98.9605C411.542 85.0633 404.527 69.392 390.493 63.9578C376.459 58.5235 360.72 65.3841 355.338 79.2814C349.957 93.1786 356.972 108.85 371.006 114.284Z" fill="#242424"/>
<path d="M25.411 591.738C39.4451 597.172 55.1844 590.312 60.5657 576.415C65.9469 562.517 58.9324 546.846 44.8983 541.412C30.8642 535.978 15.1249 542.838 9.74367 556.735C4.36241 570.633 11.3769 586.304 25.411 591.738Z" fill="#242424"/>
<path d="M296.565 165.033C310.599 170.467 326.339 163.607 331.72 149.71C337.101 135.812 330.087 120.141 316.053 114.707C302.018 109.273 286.279 116.133 280.898 130.03C275.517 143.928 282.531 159.599 296.565 165.033Z" fill="#242424"/>
<path d="M261.985 263.771C270.756 267.167 280.593 262.879 283.956 254.193C287.319 245.508 282.935 235.713 274.164 232.317C265.393 228.92 255.556 233.208 252.192 241.894C248.829 250.58 253.213 260.374 261.985 263.771Z" fill="#242424"/>
<path d="M118.743 624.262C127.515 627.658 137.352 623.37 140.715 614.685C144.078 605.999 139.694 596.204 130.923 592.808C122.152 589.412 112.315 593.699 108.951 602.385C105.588 611.071 109.972 620.866 118.743 624.262Z" fill="#242424"/>
<path d="M88.8417 522.258C95.8588 524.975 103.728 521.545 106.419 514.596C109.11 507.647 105.602 499.812 98.5854 497.095C91.5683 494.377 83.6987 497.808 81.0081 504.756C78.3174 511.705 81.8247 519.541 88.8417 522.258Z" fill="#242424"/>
<path d="M182.222 601.821C192.748 605.896 204.552 600.751 208.588 590.328C212.624 579.905 207.363 568.152 196.838 564.076C186.312 560 174.508 565.146 170.472 575.569C166.436 585.992 171.697 597.745 182.222 601.821Z" fill="#242424"/>
<path d="M224.191 359.24L221.448 361.221L265.292 420.804L268.035 418.823L224.191 359.24Z" fill="#242424"/>
<path d="M370.556 389.002C379.327 392.399 389.164 388.111 392.527 379.425C395.891 370.739 391.507 360.945 382.735 357.548C373.964 354.152 364.127 358.44 360.764 367.125C357.4 375.811 361.785 385.606 370.556 389.002Z" fill="#242424"/>
<path d="M326.709 502.237C335.48 505.633 345.318 501.345 348.681 492.659C352.044 483.974 347.66 474.179 338.889 470.783C330.117 467.386 320.28 471.674 316.917 480.36C313.554 489.046 317.938 498.84 326.709 502.237Z" fill="#242424"/>
<path d="M309.991 394.487C320.516 398.562 332.321 393.417 336.357 382.994C340.393 372.571 335.132 360.818 324.606 356.742C314.081 352.666 302.276 357.812 298.24 368.235C294.204 378.658 299.465 390.411 309.991 394.487Z" fill="#242424"/>
<path d="M237.031 460.278C247.556 464.353 259.361 459.208 263.397 448.785C267.433 438.362 262.172 426.609 251.646 422.533C241.121 418.457 229.316 423.603 225.28 434.026C221.244 444.449 226.505 456.202 237.031 460.278Z" fill="#242424"/>
<path d="M216.92 380.15C227.446 384.226 239.25 379.08 243.286 368.657C247.322 358.234 242.061 346.481 231.536 342.405C221.01 338.329 209.206 343.475 205.17 353.898C201.134 364.321 206.395 376.074 216.92 380.15Z" fill="#242424"/>
<path d="M160.153 517.318C168.925 520.714 178.762 516.426 182.125 507.74C185.488 499.055 181.104 489.26 172.333 485.864C163.562 482.467 153.725 486.755 150.361 495.441C146.998 504.127 151.382 513.921 160.153 517.318Z" fill="#242424"/>
<path d="M293.295 310.257C298.557 312.294 304.46 309.722 306.478 304.51C308.496 299.299 305.865 293.422 300.602 291.384C295.34 289.346 289.437 291.919 287.419 297.131C285.401 302.342 288.032 308.219 293.295 310.257Z" fill="#242424"/>
<path d="M429.646 509.381C403.233 510.962 379.391 508.963 358.109 504.787L411.332 367.336C432.739 371.552 456.724 373.572 483.296 371.982L483.616 371.963L483.732 371.663L565.264 161.105L704.092 214.861L496.183 751.792L357.355 698.035L430.142 510.061L430.423 509.335L429.646 509.381Z" stroke="#242424"/>
<path d="M164.547 501.73L142.952 282.243L267.609 246.417L268.54 249.671L146.589 284.736L167.941 501.453L164.547 501.73Z" fill="#242424"/>
<path d="M317.56 373.954L224.487 359.603L223.987 362.94L317.059 377.291L317.56 373.954Z" fill="#242424"/>
<path d="M375.838 371.808L243.522 439.909L245.104 442.91L377.42 374.809L375.838 371.808Z" fill="#242424"/>
<path d="M190.225 168.743L189.445 165.475L305.604 138.295L379.788 87.7352L381.711 90.5052L306.699 141.504L190.225 168.743Z" fill="#242424"/>
<path d="M246.255 437.017L244.623 439.97L331.967 487.935L333.599 484.982L246.255 437.017Z" fill="#242424"/>
</g>
<defs>
<clipPath id="clip0_44_2">
<rect width="540.733" height="624" fill="white" transform="translate(225.321) rotate(21.1673)"/>
</clipPath>
</defs>
</svg>
