<svg width="891" height="1004" viewBox="0 0 891 1004" fill="none" xmlns="http://www.w3.org/2000/svg">
<mask id="path-1-inside-1_18_104" fill="white">
<path fill-rule="evenodd" clip-rule="evenodd" d="M934.081 0.941471L0.634521 324.704L118.277 663.881L235.919 1003.06L1169.37 679.296L1051.72 340.119L934.081 0.941471Z"/>
</mask>
<path d="M0.634521 324.704L-6.24706 304.863L-26.0875 311.745L-19.2059 331.585L0.634521 324.704ZM934.081 0.941471L953.921 -5.94011L947.04 -25.7806L927.199 -18.899L934.081 0.941471ZM235.919 1003.06L216.079 1009.94L222.96 1029.78L242.801 1022.9L235.919 1003.06ZM1169.37 679.296L1176.25 699.137L1196.09 692.255L1189.21 672.415L1169.37 679.296ZM7.51611 344.544L940.962 20.7819L927.199 -18.899L-6.24706 304.863L7.51611 344.544ZM138.117 656.999L20.475 317.822L-19.2059 331.585L98.4364 670.763L138.117 656.999ZM255.76 996.177L138.117 656.999L98.4364 670.763L216.079 1009.94L255.76 996.177ZM1162.48 659.456L229.038 983.218L242.801 1022.9L1176.25 699.137L1162.48 659.456ZM1031.88 347L1149.53 686.178L1189.21 672.415L1071.56 333.237L1031.88 347ZM914.24 7.82306L1031.88 347L1071.56 333.237L953.921 -5.94011L914.24 7.82306Z" fill="#2227A5" mask="url(#path-1-inside-1_18_104)"/>
</svg>
