<svg width="904" height="1040" viewBox="0 0 904 1040" fill="none" xmlns="http://www.w3.org/2000/svg">
<mask id="path-1-inside-1_18_105" fill="white">
<path fill-rule="evenodd" clip-rule="evenodd" d="M903.495 373.071L-27.6791 0.346191L-161.087 333.638L-294.495 666.929L636.679 1039.65L770.087 706.363L903.495 373.071Z"/>
</mask>
<path d="M-27.6791 0.346191L-18.0172 -23.7919L-42.1553 -33.4538L-51.8172 -9.31567L-27.6791 0.346191ZM903.495 373.071L927.633 382.733L937.295 358.595L913.157 348.933L903.495 373.071ZM-294.495 666.929L-318.633 657.268L-328.295 681.406L-304.157 691.068L-294.495 666.929ZM636.679 1039.65L627.017 1063.79L651.155 1073.45L660.817 1049.32L636.679 1039.65ZM-37.3409 24.4843L893.833 397.209L913.157 348.933L-18.0172 -23.7919L-37.3409 24.4843ZM-136.949 343.3L-3.54096 10.0081L-51.8172 -9.31567L-185.225 323.976L-136.949 343.3ZM-270.357 676.591L-136.949 343.3L-185.225 323.976L-318.633 657.268L-270.357 676.591ZM646.341 1015.52L-284.833 642.791L-304.157 691.068L627.017 1063.79L646.341 1015.52ZM745.949 696.701L612.541 1029.99L660.817 1049.32L794.225 716.025L745.949 696.701ZM879.357 363.409L745.949 696.701L794.225 716.025L927.633 382.733L879.357 363.409Z" fill="#3B0BA3" mask="url(#path-1-inside-1_18_105)"/>
</svg>
