<svg width="1920" height="1080" viewBox="0 0 1920 1080" fill="none" xmlns="http://www.w3.org/2000/svg">
<path fill-rule="evenodd" clip-rule="evenodd" d="M1795.89 217.856L1645.1 0H0V1080H1920V430.455C1900.98 459.481 1880.45 483.93 1859.51 504.569L1724.47 309.461C1749.48 284.801 1773.92 254.702 1795.89 217.856ZM1764.22 921.284C1760.14 915.392 1758.76 908.426 1759.81 901.825L1647.55 866.921C1645.96 870.517 1643.39 873.743 1639.91 876.153C1638.5 877.125 1637.03 877.912 1635.51 878.52L1640.14 945.039C1657.18 940.799 1675.7 947.074 1686.16 962.192C1699.72 981.784 1694.62 1008.81 1674.76 1022.55C1654.9 1036.3 1627.81 1031.56 1614.25 1011.97C1600.69 992.377 1605.79 965.352 1625.65 951.606C1628.57 949.59 1631.63 947.971 1634.79 946.739L1630.12 879.912C1622.36 880.894 1614.37 877.673 1609.65 870.86C1602.87 861.064 1605.42 847.552 1615.35 840.679C1622.52 835.716 1631.58 835.573 1638.61 839.565L1670.41 779.46C1666.3 777.52 1662.63 774.513 1659.87 770.518C1658.23 768.155 1657.03 765.618 1656.24 763.001L1541.63 780.785C1542.27 791.788 1537.26 802.913 1527.44 809.71C1512.54 820.019 1492.22 816.464 1482.05 801.77C1471.88 787.076 1475.71 766.807 1490.61 756.498C1496.99 752.083 1504.36 750.211 1511.5 750.667L1524.12 672.386L1391.54 600.585C1390.12 602.532 1388.35 604.281 1386.25 605.733C1376.33 612.606 1362.78 610.236 1356 600.44C1349.22 590.644 1351.77 577.131 1361.7 570.259C1366.7 566.798 1372.62 565.681 1378.13 566.675L1427.19 417.571C1422.71 415.656 1418.72 412.51 1415.76 408.231C1414.18 405.949 1413 403.506 1412.22 400.986L1292.99 421.148C1293.8 432.3 1288.79 443.642 1278.83 450.533C1263.94 460.842 1243.62 457.288 1233.45 442.594C1223.28 427.9 1227.11 407.631 1242 397.322C1250.41 391.505 1260.54 390.102 1269.6 392.623L1311.21 284.635C1304.26 281.553 1298.05 276.596 1293.42 269.91C1287.8 261.778 1285.38 252.366 1285.91 243.154L1163.95 240.988C1162.91 250.041 1158.07 258.656 1149.93 264.294C1135.03 274.603 1114.71 271.048 1104.54 256.354C1094.37 241.66 1098.2 221.391 1113.1 211.082C1127.23 201.297 1146.26 204.002 1156.85 216.868L1291.86 123.425C1280.17 104.063 1285.62 78.5504 1304.73 65.3274C1324.59 51.5819 1351.68 56.3213 1365.24 75.9132C1378.8 95.505 1373.69 122.53 1353.83 136.276C1347.1 140.934 1339.54 143.47 1331.96 144.023L1331.92 201.73C1344.92 202.332 1357.43 208.707 1365.34 220.133C1377.86 238.223 1374.47 262.651 1358.24 277.11L1422.88 370.504C1435.29 361.913 1452.23 364.876 1460.7 377.12C1463.01 380.453 1464.45 384.13 1465.08 387.89L1519.9 394.002C1521.1 391.826 1522.81 389.882 1525 388.368C1532.44 383.213 1542.6 384.991 1547.69 392.338C1549.5 394.953 1550.42 397.922 1550.52 400.894L1623 426.488C1625.39 422.087 1628.83 418.156 1633.25 415.1C1642.71 408.551 1654.36 407.597 1664.21 411.539L1682.99 380.42C1681.76 379.229 1680.63 377.902 1679.62 376.444C1671.15 364.199 1674.34 347.308 1686.75 338.717C1699.16 330.127 1716.09 333.089 1724.57 345.334C1733.04 357.579 1729.85 374.469 1717.44 383.06L1717.4 383.091L1797.19 498.383L1797.24 498.351C1809.65 489.76 1826.58 492.723 1835.06 504.968C1843.53 517.212 1840.34 534.103 1827.93 542.694C1815.52 551.285 1798.59 548.323 1790.11 536.078C1789.93 535.81 1789.75 535.54 1789.57 535.268L1701.14 580.543C1709.85 595.056 1705.75 614.145 1691.45 624.046C1686.59 627.41 1681.15 629.297 1675.68 629.804L1683.03 727.879C1691.47 727.992 1699.69 732.002 1704.81 739.408C1709.08 745.577 1710.39 752.926 1709.05 759.798L1782.31 782.074C1784.71 777.548 1788.21 773.504 1792.73 770.377C1807.62 760.068 1827.94 763.623 1838.11 778.317C1848.28 793.011 1844.45 813.279 1829.56 823.589C1821.95 828.856 1812.92 830.504 1804.56 828.896L1795.47 879.982C1800.85 881.735 1805.71 885.183 1809.17 890.173C1817.64 902.418 1814.45 919.309 1802.04 927.9C1789.63 936.491 1772.69 933.529 1764.22 921.284ZM1697.95 576.117L1787.14 530.455C1784.83 524.454 1784.82 517.894 1786.88 511.958L1692.24 463.478L1679.68 565.54C1686.63 566.889 1693.11 570.484 1697.95 576.117ZM1287.39 405.261C1284.05 400.44 1279.62 396.818 1274.65 394.491L1316.27 286.509C1328.57 290.209 1342.46 288.438 1353.94 280.496L1418.7 374.059C1413.04 379.922 1410.37 387.893 1411.14 395.685L1292.15 415.808C1291.24 412.129 1289.67 408.555 1287.39 405.261ZM1326.6 144.086L1326.63 201.805C1319.07 202.369 1311.54 204.903 1304.83 209.547C1294.83 216.469 1288.57 226.758 1286.55 237.769L1164.13 235.552C1163.87 230.651 1162.49 225.771 1159.92 221.303L1294.93 127.859C1302.83 137.885 1314.5 143.488 1326.6 144.086ZM1674.28 564.948L1687.09 460.84L1680.14 457.276C1677.75 461.535 1674.37 465.337 1670.08 468.311C1666.26 470.956 1662.08 472.688 1657.81 473.554L1669.4 565.184C1671.02 564.983 1672.65 564.906 1674.28 564.948ZM1692.96 457.667L1789.2 506.949C1790.27 505.149 1791.56 503.454 1793.05 501.906L1712.64 385.728C1709.06 387.273 1705.28 388.007 1701.53 387.974L1692.96 457.667ZM1696.13 387.388L1687.81 455.03L1682.41 452.268C1685.8 442.766 1684.76 431.891 1678.63 423.039C1676.02 419.266 1672.74 416.228 1669.05 413.97L1687.26 383.792C1690 385.521 1693 386.729 1696.13 387.388ZM1432.36 419.194L1383.32 568.305C1386.69 569.853 1389.7 572.291 1391.96 575.551C1393.16 577.289 1394.07 579.143 1394.69 581.056L1516.29 556.557C1515.11 546.653 1518.57 536.438 1526.06 529.183L1448.77 417.515C1443.49 419.797 1437.75 420.31 1432.36 419.194ZM1394.17 595.85L1525.04 666.7L1538.48 583.301C1531.9 581.228 1525.96 577.056 1521.75 570.976C1519.76 568.098 1518.3 565.006 1517.36 561.816L1395.71 586.374C1395.91 589.599 1395.38 592.842 1394.17 595.85ZM1529.18 675.124L1516.87 751.459C1524.39 753.214 1531.28 757.631 1535.99 764.438C1538.36 767.862 1539.97 771.59 1540.86 775.424L1655.23 757.678C1654.83 753.203 1655.57 748.679 1657.35 744.537L1529.18 675.124ZM1660 739.765L1530.1 669.438L1543.79 584.498C1549.98 585.361 1556.45 584.463 1562.39 581.659L1666.99 732.792C1664.18 734.74 1661.84 737.114 1660 739.765ZM1518.1 399.171C1517.43 403.178 1518.24 407.422 1520.72 411.004C1525.8 418.351 1535.96 420.128 1543.41 414.974C1546.55 412.798 1548.71 409.737 1549.77 406.372L1620.8 431.46C1617.55 440.886 1618.64 451.618 1624.69 460.372C1625.54 461.59 1626.45 462.732 1627.43 463.796L1568.99 526.562C1558.08 518.103 1542.4 517.331 1530.3 525.704L1453.57 414.847C1460.98 409.72 1465.11 401.636 1465.42 393.348L1518.1 399.171ZM1652.39 474.19C1644.88 474.445 1637.41 472.117 1631.39 467.453L1572.96 530.219C1573.93 531.283 1574.85 532.425 1575.69 533.643C1578.98 538.393 1580.8 543.725 1581.26 549.115L1661.45 545.892L1652.39 474.19ZM1643.01 842.882L1675.59 781.284C1682.79 783.025 1690.71 781.828 1697.37 777.348L1769.36 885.068C1765.57 888.22 1762.82 892.21 1761.2 896.563L1649.11 861.709C1650 856.378 1648.91 850.736 1645.61 845.972C1644.83 844.842 1643.96 843.811 1643.01 842.882ZM1773.89 881.989L1701.61 773.849C1704.18 771.254 1706.16 768.228 1707.5 764.978L1780.17 787.061C1777.05 796.408 1778.19 806.996 1784.18 815.649C1788.04 821.232 1793.37 825.207 1799.31 827.424L1790.17 878.824C1784.71 878.192 1779.01 879.2 1773.89 881.989ZM1671.79 730.124C1673.68 729.311 1675.62 728.722 1677.58 728.352L1670.2 629.853C1660.79 629.152 1651.81 624.407 1646.06 616.107C1635.89 601.413 1639.72 581.144 1654.62 570.835C1657.58 568.782 1660.76 567.279 1664.03 566.304L1662.14 551.283L1581.27 554.533C1580.49 563.976 1575.6 573.055 1567.14 578.915L1671.79 730.124Z" fill="#0E0E14"/>
</svg>
