<svg width="23" height="187" viewBox="0 0 23 187" fill="none" xmlns="http://www.w3.org/2000/svg">
<path d="M10.875 13.225L10.875 7.65L18.675 7.65L18.675 13.225L10.875 13.225ZM10.875 5.6L10.875 2.175L9.2 2.175L9.2 18.7L10.875 18.7L10.875 15.275L18.675 15.275L18.675 18.75L20.325 18.75L20.325 2.125L18.675 2.125L18.675 5.6L10.875 5.6ZM4.725 0.324999L3.025 0.324999L3.025 20.65L4.725 20.65L4.725 0.324999ZM4.6 34.498L8.825 34.498L8.825 41.673L10.475 41.673L10.475 27.873L14.1 27.873L14.1 41.148L20.925 41.148L20.925 25.798L19.25 25.798L19.25 39.148L15.75 39.148L15.75 25.848L8.825 25.848L8.825 32.423L4.6 32.423L4.6 23.298L2.925 23.298L2.925 43.673L4.6 43.673L4.6 34.498ZM16.8 55.5711L15.125 55.5711L15.125 58.9461L9.025 58.9461L9.025 60.8961L22.075 60.8961L22.075 58.9461L16.8 58.9461L16.8 55.5711ZM11.5 57.3211C12.7 54.5211 15.35 52.9461 17.825 52.9461L19.075 52.9461L19.075 56.7961L20.75 56.7961L20.75 46.8461L19.075 46.8461L19.075 50.9711L17.8 50.9711C15.125 50.9711 12.225 49.3211 10.975 46.4211L9.4 47.4961C10.375 49.6711 12.225 51.2211 14.4 51.9961C12.45 52.7711 10.825 54.2461 9.925 56.2961L11.5 57.3211ZM6.2 50.1711L6.2 63.1961L0.124997 63.1961L0.124997 65.2461L7.85 65.2461L7.85 50.1711L6.2 50.1711ZM22.55 63.2711L8.85 63.2711L8.85 65.2461L22.55 65.2461L22.55 63.2711ZM10.475 87.3191L10.475 73.9941L14.025 73.9941L14.025 86.5941L15.65 86.5941L15.65 73.9941L18.975 73.9941L18.975 87.0941L20.625 87.0941L20.625 71.9191L8.825 71.9191L8.825 87.3191L10.475 87.3191ZM4.725 69.2941L3.05 69.2941L3.05 89.6441L4.725 89.6441L4.725 69.2941ZM15.3 114.364L15.3 103.314L19.875 103.314L19.875 114.364L15.3 114.364ZM21.525 116.389L21.525 101.314L13.65 101.314L13.65 116.389L21.525 116.389ZM7.05 103.314L7.05 101.264L0.649995 101.264L0.649995 116.764L2.32499 116.764L2.325 103.314L7.05 103.314ZM11.1 98.6637L9.45 98.6637L9.45 107.989L4.925 107.989L4.925 110.039L9.45 110.039L9.44999 119.039L11.1 119.039L11.1 98.6637ZM20.925 128.987C20.925 125.512 18.8 122.987 15.65 122.987C12.525 122.987 10.375 125.512 10.375 128.987C10.375 132.487 12.525 134.987 15.65 134.987C18.8 134.987 20.925 132.487 20.925 128.987ZM19.175 128.987C19.175 131.312 17.75 132.987 15.65 132.987C13.575 132.987 12.125 131.312 12.125 128.987C12.125 126.687 13.575 124.987 15.65 124.987C17.75 124.987 19.175 126.687 19.175 128.987ZM22.575 137.937L0.0999938 137.937L0.0999937 139.987L22.575 139.987L22.575 137.937ZM5.02499 122.112C5.02499 126.162 5.07499 131.587 5.99999 136.637L7.52499 136.462C6.77499 131.562 6.74999 125.937 6.74999 121.862L5.02499 122.112ZM6.84999 151.285C6.84999 149.26 8.29999 147.785 10.3 147.785C12.325 147.785 13.775 149.26 13.775 151.285C13.775 153.335 12.325 154.81 10.3 154.81C8.29999 154.81 6.84999 153.335 6.84999 151.285ZM15.475 151.285C15.475 148.135 13.325 145.86 10.3 145.86C7.24999 145.86 5.14999 148.135 5.14999 151.285C5.14999 154.485 7.24999 156.76 10.3 156.76C13.325 156.76 15.475 154.485 15.475 151.285ZM22.3 152.285L22.3 150.235L18.975 150.235L18.975 144.585L17.325 144.585L17.325 157.81L18.975 157.81L18.975 152.285L22.3 152.285ZM13.35 165.66L13.35 161.985L22.55 161.985L22.55 159.935L0.149993 159.935L0.149993 161.985L11.625 161.985L11.625 165.66L13.35 165.66ZM20.15 169.033L18.5 169.033L18.5 177.458C13.175 177.033 8.87499 174.033 5.99999 168.008L4.32499 169.108C7.97499 176.558 13.675 179.533 20.15 179.533L20.15 169.033ZM22.575 184.058L0.149992 184.058L0.149992 186.108L22.575 186.108L22.575 184.058Z" fill="white" fill-opacity="0.21"/>
</svg>
