<svg width="24" height="187" viewBox="0 0 24 187" fill="none" xmlns="http://www.w3.org/2000/svg">
<path d="M12.35 12.8L12.35 8.1L19.25 8.1L19.25 12.8L12.35 12.8ZM12.35 4.825L12.35 1.825L9.725 1.825L9.725 19.125L12.35 19.125L12.35 16.075L19.25 16.075L19.25 19.2L21.875 19.2L21.875 1.7L19.25 1.7L19.25 4.825L12.35 4.825ZM6.2 0.0749991L3.525 0.074999L3.525 20.925L6.2 20.925L6.2 0.0749991ZM6.075 35.123L9.5 35.123L9.5 42.098L12.15 42.098L12.15 28.748L14.725 28.748L14.725 41.573L22.4 41.573L22.4 25.448L19.775 25.448L19.775 38.323L17.3 38.323L17.3 25.473L9.5 25.473L9.5 31.823L6.075 31.823L6.075 23.073L3.375 23.073L3.375 43.923L6.075 43.923L6.075 35.123ZM18.2 55.5961L15.525 55.5961L15.525 58.0461L9.95 58.0461L9.95 61.1211L23.45 61.1211L23.45 58.0461L18.2 58.0461L18.2 55.5961ZM12.975 57.3961C14.125 54.4711 16.5 53.3211 18.975 53.3211L19.6 53.3211L19.6 56.6711L22.225 56.6711L22.225 46.4961L19.6 46.4961L19.6 50.1211L18.975 50.1211C16.4 50.1211 13.775 48.8961 12.55 45.7711L10.025 47.4461C10.85 49.5461 12.325 50.9211 14.15 51.7461C12.5 52.5211 11.175 53.8211 10.425 55.7711L12.975 57.3961ZM6.375 49.8461L6.375 62.3961L0.824997 62.3961L0.824997 65.6961L8.975 65.6961L8.975 49.8461L6.375 49.8461ZM23.875 62.5711L9.85 62.5711L9.85 65.6961L23.875 65.6961L23.875 62.5711ZM12 87.6941L12 74.8691L14.575 74.8691L14.575 86.9941L17.125 86.9941L17.125 74.8691L19.55 74.8691L19.55 87.5191L22.2 87.5191L22.2 71.5191L9.4 71.5191L9.4 87.6941L12 87.6941ZM6.175 69.0691L3.5 69.0691L3.5 89.9191L6.175 89.9191L6.175 69.0691ZM16.925 113.218L16.925 104.093L20.325 104.093L20.325 113.218L16.925 113.218ZM22.9 116.468L22.9 100.843L14.325 100.843L14.325 116.468L22.9 116.468ZM7.925 103.993L7.925 100.693L1.25 100.693L1.24999 116.818L3.87499 116.818L3.875 103.993L7.925 103.993ZM12.5 98.2678L9.9 98.2678L9.9 107.343L5.975 107.343L5.975 110.643L9.9 110.643L9.9 119.118L12.5 119.118L12.5 98.2678ZM22.35 128.691C22.35 125.091 19.975 122.366 16.675 122.366C13.35 122.366 11 125.091 11 128.691C11 132.291 13.35 135.041 16.675 135.041C19.975 135.041 22.35 132.291 22.35 128.691ZM19.525 128.691C19.525 130.466 18.475 131.816 16.675 131.816C14.875 131.816 13.825 130.466 13.825 128.691C13.825 126.916 14.875 125.566 16.675 125.566C18.475 125.566 19.525 126.916 19.525 128.691ZM23.9 137.191L0.799994 137.191L0.799994 140.491L23.9 140.491L23.9 137.191ZM5.47499 121.816C5.47499 125.791 5.52499 131.191 6.52499 136.141L8.89999 135.941C8.17499 131.091 8.14999 125.441 8.15 121.391L5.47499 121.816ZM8.24999 150.939C8.24999 149.389 9.29999 148.239 11.05 148.239C12.8 148.239 13.875 149.389 13.875 150.939C13.875 152.489 12.8 153.614 11.075 153.614C9.29999 153.614 8.24999 152.489 8.24999 150.939ZM16.55 150.939C16.55 147.589 14.275 145.089 11.075 145.089C7.82499 145.089 5.54999 147.589 5.54999 150.939C5.54999 154.264 7.82499 156.739 11.075 156.739C14.275 156.739 16.55 154.264 16.55 150.939ZM23.475 152.564L23.475 149.264L20.475 149.264L20.475 144.164L17.85 144.164L17.85 157.564L20.475 157.564L20.475 152.564L23.475 152.564ZM14.875 165.664L14.875 162.364L23.875 162.364L23.875 159.064L0.849993 159.064L0.849993 162.364L12.15 162.364L12.15 165.664L14.875 165.664ZM21.5 168.562L18.875 168.562L18.875 176.237C13.775 175.762 10.175 173.212 7.34999 167.337L4.74999 169.062C8.69999 177.237 14.45 179.612 21.5 179.612L21.5 168.562ZM23.9 183.137L0.874992 183.137L0.874992 186.462L23.9 186.462L23.9 183.137Z" fill="#2AFDFF" fill-opacity="0.5"/>
</svg>
