<svg width="79" height="94" viewBox="0 0 79 94" fill="none" xmlns="http://www.w3.org/2000/svg">
<path d="M18.6117 91.7948L18.6219 91.246L9.4795 79.463L4.30561 88.2482L3.86637 87.9891L9.1424 79.026L9.06068 78.9244L9.26498 78.8177L9.41821 78.5535L9.52035 78.6805L18.8977 73.7722V15.1162L3.29944 3.81079H26.5589V4.3189H4.87254L19.4084 14.8621V73.5131H19.4136L19.4084 73.8484L26.896 83.3754L18.6066 91.7999L18.6117 91.7948ZM19.3982 74.6512L19.1429 90.5296L26.2218 83.3348L19.3982 74.6563V74.6512ZM9.83702 79.0921L18.6321 90.428L18.8926 74.3514L9.83702 79.0921Z" fill="white"/>
<path d="M4.19361 25.1738L3.97461 25.6328L19.0398 32.7461L19.2588 32.2871L4.19361 25.1738Z" fill="white"/>
<path d="M19.0407 74.1584L3.66205 66.6384L18.7189 50.8311L3.98382 44.4391L4.18812 43.9717L19.5872 50.6584L4.50989 66.486L19.2654 73.7011L19.0407 74.1584Z" fill="white"/>
<path d="M19.1173 73.8027L18.673 73.5486L26.3342 60.3835L32.9637 47.5335L26.3648 38.3265L18.9794 31.8532L19.3165 31.4722L26.7632 38.0115L33.2242 47.0254L33.2548 46.9644L33.3723 47.1829L41.3655 43.5601V63.3051L33.2651 48.0619L26.7837 60.6274L19.1173 73.8027ZM33.6175 47.63L40.8599 61.2524V44.3476L33.6175 47.63Z" fill="white"/>
<path d="M4.08598 7.11353C5.77845 7.11353 7.15047 5.74861 7.15047 4.06488C7.15047 2.38116 5.77845 1.01624 4.08598 1.01624C2.3935 1.01624 1.02148 2.38116 1.02148 4.06488C1.02148 5.74861 2.3935 7.11353 4.08598 7.11353Z" fill="white"/>
<path d="M4.08598 28.4541C5.77845 28.4541 7.15047 27.0892 7.15047 25.4055C7.15047 23.7217 5.77845 22.3568 4.08598 22.3568C2.3935 22.3568 1.02148 23.7217 1.02148 25.4055C1.02148 27.0892 2.3935 28.4541 4.08598 28.4541Z" fill="white"/>
<path d="M4.08596 46.2378C5.21428 46.2378 6.12896 45.3279 6.12896 44.2054C6.12896 43.0829 5.21428 42.173 4.08596 42.173C2.95765 42.173 2.04297 43.0829 2.04297 44.2054C2.04297 45.3279 2.95765 46.2378 4.08596 46.2378Z" fill="white"/>
<path d="M4.08598 69.6108C5.77845 69.6108 7.15047 68.2459 7.15047 66.5622C7.15047 64.8785 5.77845 63.5135 4.08598 63.5135C2.3935 63.5135 1.02148 64.8785 1.02148 66.5622C1.02148 68.2459 2.3935 69.6108 4.08598 69.6108Z" fill="white"/>
<path d="M26.5589 8.12973C28.8156 8.12973 30.6449 6.30983 30.6449 4.06486C30.6449 1.8199 28.8156 0 26.5589 0C24.3023 0 22.473 1.8199 22.473 4.06486C22.473 6.30983 24.3023 8.12973 26.5589 8.12973Z" fill="white"/>
<path d="M4.08599 94C6.34262 94 8.17198 92.1801 8.17198 89.9351C8.17198 87.6901 6.34262 85.8702 4.08599 85.8702C1.82936 85.8702 0 87.6901 0 89.9351C0 92.1801 1.82936 94 4.08599 94Z" fill="white"/>
<path d="M18.8977 19.3081C21.1543 19.3081 22.9837 17.4882 22.9837 15.2432C22.9837 12.9982 21.1543 11.1783 18.8977 11.1783C16.6411 11.1783 14.8117 12.9982 14.8117 15.2432C14.8117 17.4882 16.6411 19.3081 18.8977 19.3081Z" fill="white"/>
<path d="M19.4084 35.0595C20.8188 35.0595 21.9622 33.922 21.9622 32.5189C21.9622 31.1158 20.8188 29.9784 19.4084 29.9784C17.998 29.9784 16.8547 31.1158 16.8547 32.5189C16.8547 33.922 17.998 35.0595 19.4084 35.0595Z" fill="white"/>
<path d="M18.8977 93.4918C20.3081 93.4918 21.4514 92.3544 21.4514 90.9513C21.4514 89.5482 20.3081 88.4108 18.8977 88.4108C17.4873 88.4108 16.3439 89.5482 16.3439 90.9513C16.3439 92.3544 17.4873 93.4918 18.8977 93.4918Z" fill="white"/>
<path d="M9.19345 80.7892C10.3218 80.7892 11.2364 79.8793 11.2364 78.7568C11.2364 77.6343 10.3218 76.7244 9.19345 76.7244C8.06513 76.7244 7.15045 77.6343 7.15045 78.7568C7.15045 79.8793 8.06513 80.7892 9.19345 80.7892Z" fill="white"/>
<path d="M26.5589 86.8865C28.2514 86.8865 29.6234 85.5216 29.6234 83.8378C29.6234 82.1541 28.2514 80.7892 26.5589 80.7892C24.8665 80.7892 23.4944 82.1541 23.4944 83.8378C23.4944 85.5216 24.8665 86.8865 26.5589 86.8865Z" fill="white"/>
<path d="M19.2929 50.5265L19.0167 50.9539L28.3735 56.939L28.6497 56.5116L19.2929 50.5265Z" fill="white"/>
<path d="M41.3706 46.746C42.781 46.746 43.9244 45.6086 43.9244 44.2055C43.9244 42.8024 42.781 41.6649 41.3706 41.6649C39.9602 41.6649 38.8169 42.8024 38.8169 44.2055C38.8169 45.6086 39.9602 46.746 41.3706 46.746Z" fill="white"/>
<path d="M41.3706 65.0379C42.781 65.0379 43.9244 63.9004 43.9244 62.4973C43.9244 61.0942 42.781 59.9568 41.3706 59.9568C39.9602 59.9568 38.8169 61.0942 38.8169 62.4973C38.8169 63.9004 39.9602 65.0379 41.3706 65.0379Z" fill="white"/>
<path d="M33.1986 50.8108C34.8911 50.8108 36.2631 49.4459 36.2631 47.7621C36.2631 46.0784 34.8911 44.7135 33.1986 44.7135C31.5062 44.7135 30.1342 46.0784 30.1342 47.7621C30.1342 49.4459 31.5062 50.8108 33.1986 50.8108Z" fill="white"/>
<path d="M26.5589 64.0216C28.2514 64.0216 29.6234 62.6567 29.6234 60.973C29.6234 59.2892 28.2514 57.9243 26.5589 57.9243C24.8665 57.9243 23.4944 59.2892 23.4944 60.973C23.4944 62.6567 24.8665 64.0216 26.5589 64.0216Z" fill="white"/>
<path d="M19.4084 53.8595C21.1009 53.8595 22.4729 52.4946 22.4729 50.8109C22.4729 49.1271 21.1009 47.7622 19.4084 47.7622C17.716 47.7622 16.3439 49.1271 16.3439 50.8109C16.3439 52.4946 17.716 53.8595 19.4084 53.8595Z" fill="white"/>
<path d="M18.8977 76.2162C20.3081 76.2162 21.4514 75.0788 21.4514 73.6757C21.4514 72.2726 20.3081 71.1351 18.8977 71.1351C17.4873 71.1351 16.3439 72.2726 16.3439 73.6757C16.3439 75.0788 17.4873 76.2162 18.8977 76.2162Z" fill="white"/>
<path d="M26.3035 39.8865C27.1498 39.8865 27.8358 39.2041 27.8358 38.3622C27.8358 37.5204 27.1498 36.8379 26.3035 36.8379C25.4573 36.8379 24.7713 37.5204 24.7713 38.3622C24.7713 39.2041 25.4573 39.8865 26.3035 39.8865Z" fill="white"/>
<path d="M56.1823 4.06482V38.1538C52.5356 39.8305 49.0574 40.8518 45.8243 41.4209V63.7777C49.0574 63.2086 52.5356 62.1873 56.1823 60.5105V90.9513H78.6553V4.06482H56.1823Z" fill="white"/>
<path d="M18.6679 73.7875L3.76422 44.1292L19.2552 32.3157L19.5617 32.7222L4.40776 44.2816L19.1275 73.5639L18.6679 73.7875Z" fill="white"/>
<path d="M33.1454 47.5147L19.3541 50.5614L19.4648 51.0574L33.2561 48.0107L33.1454 47.5147Z" fill="white"/>
<path d="M41.1783 44.0432L26.3638 60.8071L26.7474 61.1426L41.5619 44.3786L41.1783 44.0432Z" fill="white"/>
<path d="M4.22901 25.6137L3.94299 25.1971L18.7138 15.0603L26.3495 3.92261L26.7683 4.20715L19.0407 15.4516L4.22901 25.6137Z" fill="white"/>
<path d="M26.5893 60.2523L26.521 60.7559L41.3314 62.7427L41.3997 62.2392L26.5893 60.2523Z" fill="white"/>
</svg>
