<svg width="40" height="63" viewBox="0 0 40 63" fill="none" xmlns="http://www.w3.org/2000/svg">
<path d="M4 8C6.2091 8 8 6.2091 8 4C8 1.79086 6.2091 0 4 0C1.79086 0 0 1.79086 0 4C0 6.2091 1.79086 8 4 8Z" fill="white"/>
<path d="M36 24C38.2091 24 40 22.2091 40 20C40 17.7909 38.2091 16 36 16C33.7909 16 32 17.7909 32 20C32 22.2091 33.7909 24 36 24Z" fill="white"/>
<path d="M4 35C6.2091 35 8 33.2091 8 31C8 28.7909 6.2091 27 4 27C1.7909 27 0 28.7909 0 31C0 33.2091 1.7909 35 4 35Z" fill="white"/>
<path d="M4 63C6.2091 63 8 61.2091 8 59C8 56.7909 6.2091 55 4 55C1.79086 55 0 56.7909 0 59C0 61.2091 1.79086 63 4 63Z" fill="white"/>
<path d="M36 55C38.2091 55 40 53.2091 40 51C40 48.7909 38.2091 47 36 47C33.7909 47 32 48.7909 32 51C32 53.2091 33.7909 55 36 55Z" fill="white"/>
<path d="M7 5L36.5 21L4 31.5L36.5 51.5L4 59.5" stroke="white"/>
</svg>
