<svg width="40" height="39" viewBox="0 0 40 39" fill="none" xmlns="http://www.w3.org/2000/svg">
<path d="M4 12C6.2091 12 8 10.2091 8 8C8 5.79086 6.2091 4 4 4C1.79086 4 0 5.79086 0 8C0 10.2091 1.79086 12 4 12Z" fill="white"/>
<path d="M36 35C38.2091 35 40 33.2091 40 31C40 28.7909 38.2091 27 36 27C33.7909 27 32 28.7909 32 31C32 33.2091 33.7909 35 36 35Z" fill="white"/>
<path d="M4 39C6.2091 39 8 37.2091 8 35C8 32.7909 6.2091 31 4 31C1.7909 31 0 32.7909 0 35C0 37.2091 1.7909 39 4 39Z" fill="white"/>
<path d="M36 8C38.2091 8 40 6.2091 40 4C40 1.7909 38.2091 0 36 0C33.7909 0 32 1.7909 32 4C32 6.2091 33.7909 8 36 8Z" fill="white"/>
<path d="M7 9L35.5 30M4 35.5L35.5 3.5" stroke="white"/>
</svg>
